<?xml version="1.0" encoding="utf-8"?>
<svg viewBox="0 0 500 500" width="100px" height="100px" xmlns="http://www.w3.org/2000/svg" xmlns:bx="https://boxy-svg.com">
  <defs>
    <bx:grid x="0" y="0" width="5" height="5"/>
  </defs>
  <path style="stroke: rgb(0, 0, 0); stroke-width: 16.044px; stroke-miterlimit: 1; fill: rgb(156, 145, 145);" transform="matrix(1.150456, 0, 0, 1.150456, -452.353638, -416.72644)" d="M 596.83551429 401.342 L 624.16448571 401.342 L 636.937747652 422.253233527 A 160.44 160.44 0 0 1 660.631476318 428.093213136 L 681.659572847 415.513266212 L 705.858175267 428.2136725 L 707.450402244 452.665681037 A 160.44 160.44 0 0 1 725.716183213 468.847750915 L 750.181830832 467.48100483 L 765.70645606 489.97230738 L 755.752888061 512.36343045 A 160.44 160.44 0 0 1 764.40625104 535.180473403 L 786.704664721 545.340033214 L 789.998808211 572.469745663 L 770.77968771 587.670446813 A 160.44 160.44 0 0 1 767.838251524 611.895353276 L 782.861133419 631.253786266 L 773.170146595 656.80681844 L 749.088342485 661.334800224 A 160.44 160.44 0 0 1 735.225954716 681.417936068 L 739.531743628 705.540458533 L 719.075714783 723.662918709 L 695.648078167 716.480875069 A 160.44 160.44 0 0 1 674.040444793 727.821435899 L 666.642736372 751.181868652 L 640.107895193 757.722119601 L 622.701415286 740.475370182 A 160.44 160.44 0 0 1 598.298584714 740.475370182 L 580.892104807 757.722119601 L 554.357263628 751.181868652 L 546.959555207 727.821435899 A 160.44 160.44 0 0 1 525.351921833 716.480875069 L 501.924285217 723.662918709 L 481.468256372 705.540458533 L 485.774045284 681.417936068 A 160.44 160.44 0 0 1 471.911657515 661.334800224 L 447.829853405 656.80681844 L 438.138866581 631.253786266 L 453.161748476 611.895353276 A 160.44 160.44 0 0 1 450.22031229 587.670446813 L 431.001191789 572.469745663 L 434.295335279 545.340033214 L 456.59374896 535.180473403 A 160.44 160.44 0 0 1 465.247111939 512.36343045 L 455.29354394 489.97230738 L 470.818169168 467.48100483 L 495.283816787 468.847750915 A 160.44 160.44 0 0 1 513.549597756 452.665681037 L 515.141824733 428.2136725 L 539.340427153 415.513266212 L 560.368523682 428.093213136 A 160.44 160.44 0 0 1 584.062252348 422.253233527 Z M 610.5 500.28 A 80.22 80.22 0 0 0 610.5 660.72 A 80.22 80.22 0 0 0 610.5 500.28" bx:shape="cog 610.5 580.5 80.22 160.44 179.158 0.37 13 1@7973751e"/>
</svg>