<?xml version="1.0" encoding="utf-8"?>
<svg viewBox="0 0 500 500" xmlns="http://www.w3.org/2000/svg">
  <path style="stroke: rgb(0, 0, 0); stroke-width: 16.044px; stroke-miterlimit: 1; fill: rgb(156, 145, 145);" transform="matrix(1.1504559516906738, 0, 0, 1.1504559516906738, -452.35363769531614, -416.7264404296875)" d="M 581.412717025 394.487 L 639.587282975 394.487 L 644.254728479 441.107742158 A 143.421 143.421 0 0 1 685.19701336 458.06659183 L 721.463238651 428.401131273 L 762.598868727 469.536761349 L 732.93340817 505.80298664 A 143.421 143.421 0 0 1 749.892257842 546.745271521 L 796.513 551.412717025 L 796.513 609.587282975 L 749.892257842 614.254728479 A 143.421 143.421 0 0 1 732.93340817 655.19701336 L 762.598868727 691.463238651 L 721.463238651 732.598868727 L 685.19701336 702.93340817 A 143.421 143.421 0 0 1 644.254728479 719.892257842 L 639.587282975 766.513 L 581.412717025 766.513 L 576.745271521 719.892257842 A 143.421 143.421 0 0 1 535.80298664 702.93340817 L 499.536761349 732.598868727 L 458.401131273 691.463238651 L 488.06659183 655.19701336 A 143.421 143.421 0 0 1 471.107742158 614.254728479 L 424.487 609.587282975 L 424.487 551.412717025 L 471.107742158 546.745271521 A 143.421 143.421 0 0 1 488.06659183 505.80298664 L 458.401131273 469.536761349 L 499.536761349 428.401131273 L 535.80298664 458.06659183 A 143.421 143.421 0 0 1 576.745271521 441.107742158 Z M 610.5 517.047 A 63.453 63.453 0 0 0 610.5 643.953 A 63.453 63.453 0 0 0 610.5 517.047"/>
</svg>