<?xml version="1.0" encoding="utf-8"?>
<svg viewBox="0 0 500 500" xmlns="http://www.w3.org/2000/svg" xmlns:bx="https://boxy-svg.com">
  <defs>
    <bx:grid x="0" y="0" width="10" height="10"/>
  </defs>
  <path style="fill: rgb(216, 216, 216); stroke: rgb(0, 0, 0); visibility: hidden;" d="M 20 420 L 420 20 L 480 80 L 80 480 L 20 420 Z"/>
  <line style="fill: rgb(216, 216, 216); stroke: rgb(0, 0, 0); visibility: hidden;" x1="500" y1="0" x2="0" y2="500"/>
  <path style="stroke: rgb(0, 0, 0); fill: rgb(216, 52, 27);" d="M 464.449 62.556 C 491.386 89.492 477.917 102.96 464.449 116.428 L 437.513 143.364 L 356.704 62.556 L 383.64 35.619 C 397.108 22.151 410.899 8.361 437.513 35.619 M 437.513 35.619 L 464.449 62.556">
    <title>eraser</title>
  </path>
  <polygon style="stroke: rgb(0, 0, 0); fill: rgb(213, 213, 213);" points="356.704 62.556 329.768 89.492 410.577 170.301 437.513 143.365">
    <title>metal</title>
  </polygon>
  <polygon style="stroke: rgb(0, 0, 0); fill: rgb(255, 204, 117);" points="87.341 331.919 329.768 89.492 370.172 129.896 127.745 372.323">
    <title>top-half</title>
  </polygon>
  <polygon style="stroke: rgb(0, 0, 0); fill: rgb(255, 157, 73);" points="410.577 170.301 370.172 129.896 127.745 372.323 168.15 412.728">
    <title>bottom-half</title>
  </polygon>
  <path style="stroke: rgb(0, 0, 0); fill: rgb(242, 235, 217);" d="M 73.873 453.132 L 168.15 412.728 L 127.745 372.323 L 87.341 331.919 L 46.936 426.196 L 73.873 453.132 Z">
    <title>wood-tip</title>
  </path>
  <polygon style="stroke: rgb(0, 0, 0); fill: rgb(155, 154, 163);" points="20 480.069 73.873 453.132 46.936 426.196">
    <title>lead-tip</title>
  </polygon>
</svg>